<svg width="18" height="14" viewBox="0 0 18 14" fill="none" xmlns="http://www.w3.org/2000/svg">
<path d="M17.3814 0.204952C16.9959 0.586608 16.6344 0.951302 16.2729 1.31599C14.1363 3.44479 12.0076 5.57358 9.87094 7.71085C9.2926 8.28758 8.74638 8.28758 8.16803 7.70237C5.75825 5.27674 3.34847 2.85958 0.946716 0.442427C0.86639 0.357615 0.786065 0.281283 0.681641 0.179508C0.906554 0.0268459 1.1395 0.00140228 1.38048 0.00140228C3.13962 0.00140228 4.89876 0.00140228 6.6579 0.00140228C9.9593 0.00140228 13.2687 0.00140228 16.5701 0.00140228C16.8513 -0.00707896 17.1164 0.0183649 17.3814 0.204952Z" fill="white"/>
<path d="M6.5056 7.48193C6.88313 7.86359 7.25263 8.22828 7.62213 8.60146C7.79082 8.77108 7.95147 8.93223 8.12016 9.09337C8.65834 9.61921 9.38931 9.62769 9.92749 9.09337C10.4014 8.6269 10.8673 8.15195 11.3412 7.677C11.3894 7.62611 11.4376 7.58371 11.5019 7.51586C13.4458 9.46654 15.3816 11.4172 17.3255 13.3764C17.1086 13.5291 16.8837 13.5545 16.6428 13.5545C14.8595 13.5545 13.0682 13.5545 11.285 13.5545C7.9836 13.5545 4.69023 13.5545 1.38883 13.5545C1.12375 13.5545 0.874743 13.5121 0.625732 13.351C2.59372 11.3918 4.54564 9.4411 6.5056 7.48193Z" fill="white"/>
<path d="M0.0632922 12.5197C-0.0170334 12.2992 -0.0250659 1.26512 0.0632922 1.0022C1.95898 2.91048 3.86269 4.81876 5.78247 6.75248C3.87072 8.6862 1.95898 10.6114 0.0632922 12.5197Z" fill="white"/>
<path d="M12.2246 6.79483C14.1364 4.8611 16.0642 2.96131 17.9599 1.01062C17.9679 1.12936 18 1.28202 18 1.43468C18 4.12324 18 6.82027 18 9.50882C18 10.3909 18 11.2729 18 12.155C18 12.2907 17.9759 12.4349 17.9599 12.5536C16.0481 10.6453 14.1444 8.72855 12.2246 6.79483Z" fill="white"/>
</svg>
