<svg width="17" height="12" viewBox="0 0 17 12" fill="none" xmlns="http://www.w3.org/2000/svg">
<path d="M8.63285 12C6.96026 11.9873 5.57307 11.5223 4.29207 10.7454C2.44027 9.62447 1.07963 8.07687 0.0641253 6.22994C-0.0155221 6.08983 -0.0221561 5.94335 0.050854 5.80324C1.10618 3.72704 2.59957 2.0266 4.75004 0.918446C6.08414 0.236994 7.50452 -0.0878163 9.01782 0.0204518C10.4448 0.115982 11.7325 0.612743 12.9139 1.38336C14.3807 2.34503 15.5091 3.6124 16.4449 5.05173C16.6109 5.31285 16.7702 5.58033 16.9295 5.84782C17.0224 6.00067 17.0224 6.15989 16.9361 6.31911C15.967 7.96223 14.7524 9.40794 13.1263 10.5034C12.0046 11.2612 10.7833 11.7707 9.41606 11.949C9.1041 11.9809 8.79879 11.9873 8.63285 12ZM8.35409 8.57363C8.89171 8.57363 9.27003 8.49721 9.62845 8.35073C11.4272 7.63106 11.8718 5.47844 10.4913 4.19196C9.34968 3.12838 7.45142 3.17933 6.37618 4.3066C5.50669 5.21095 5.43368 6.53564 6.21025 7.50368C6.78105 8.22335 7.56426 8.55452 8.35409 8.57363Z" fill="#A2A2A2"/>
</svg>
