<svg width="17" height="18" viewBox="0 0 17 18" fill="none" xmlns="http://www.w3.org/2000/svg">
<path d="M8.63285 15C6.96026 14.9873 5.57307 14.5223 4.29207 13.7454C2.44027 12.6245 1.07963 11.0769 0.0641253 9.22994C-0.0155221 9.08983 -0.0221561 8.94335 0.050854 8.80324C1.10618 6.72704 2.59957 5.0266 4.75004 3.91845C6.08414 3.23699 7.50452 2.91218 9.01782 3.02045C10.4448 3.11598 11.7325 3.61274 12.9139 4.38336C14.3807 5.34503 15.5091 6.6124 16.4449 8.05173C16.6109 8.31285 16.7702 8.58033 16.9295 8.84782C17.0224 9.00067 17.0224 9.15989 16.9361 9.31911C15.967 10.9622 14.7524 12.4079 13.1263 13.5034C12.0046 14.2612 10.7833 14.7707 9.41606 14.949C9.1041 14.9809 8.79879 14.9873 8.63285 15ZM8.35409 11.5736C8.89171 11.5736 9.27003 11.4972 9.62845 11.3507C11.4272 10.6311 11.8718 8.47844 10.4913 7.19196C9.34968 6.12838 7.45142 6.17933 6.37618 7.3066C5.50669 8.21095 5.43368 9.53564 6.21025 10.5037C6.78105 11.2233 7.56426 11.5545 8.35409 11.5736Z" fill="#A2A2A2"/>
<line x1="14.8" y1="0.6" x2="2.2" y2="17.4" stroke="#A1A1A1" stroke-width="2"/>
</svg>
