<svg width="12" height="13" viewBox="0 0 12 13" fill="none" xmlns="http://www.w3.org/2000/svg">
<path d="M4.71282 9.33561C2.15516 9.33561 0.0800781 7.26287 0.0800781 4.70809C0.0800781 2.15331 2.15516 0.0805664 4.71282 0.0805664C7.27048 0.0805664 9.34556 2.15331 9.34556 4.70809C9.34556 7.26287 7.27048 9.33561 4.71282 9.33561ZM4.71282 0.546534C2.41253 0.546534 0.562655 2.41039 0.562655 4.69202C0.562655 6.97365 2.42862 8.83751 4.71282 8.83751C7.0131 8.83751 8.86298 6.97365 8.86298 4.69202C8.86298 2.41039 7.0131 0.546534 4.71282 0.546534Z" fill="white"/>
<path d="M4.71317 9.41571C2.10725 9.41571 0 7.29477 0 4.70786C0 2.12095 2.12334 0 4.71317 0C7.30301 0 9.42635 2.12095 9.42635 4.70786C9.42635 7.29477 7.31909 9.41571 4.71317 9.41571ZM4.71317 0.144611C2.20377 0.144611 0.160859 2.18522 0.160859 4.69179C0.160859 7.19836 2.20377 9.23897 4.71317 9.23897C7.22258 9.23897 9.26549 7.19836 9.26549 4.69179C9.26549 2.18522 7.23866 0.144611 4.71317 0.144611ZM4.71317 8.93368C2.38071 8.93368 0.482578 7.03768 0.482578 4.70786C0.482578 2.37803 2.38071 0.482033 4.71317 0.482033C7.04563 0.482033 8.94378 2.37803 8.94378 4.70786C8.94378 7.03768 7.06172 8.93368 4.71317 8.93368ZM4.71317 0.626645C2.46114 0.626645 0.643437 2.45837 0.643437 4.69179C0.643437 6.92521 2.47723 8.75694 4.71317 8.75694C6.9652 8.75694 8.78292 6.92521 8.78292 4.69179C8.78292 2.45837 6.9652 0.626645 4.71317 0.626645Z" fill="white"/>
<path d="M11.5178 11.9062L7.625 8.00173L7.9628 7.66431L11.8556 11.5688C11.9521 11.6652 11.9521 11.8098 11.8556 11.9062C11.7591 12.0026 11.6143 12.0026 11.5178 11.9062Z" fill="white"/>
<path d="M11.678 12.0669C11.5975 12.0669 11.5171 12.0347 11.4528 11.9704L7.51172 8.01777L7.96212 7.56787L11.9032 11.5205C12.0319 11.6491 12.0319 11.8419 11.9032 11.9704C11.8549 12.0347 11.7745 12.0669 11.678 12.0669ZM11.5654 11.858C11.6297 11.9222 11.7262 11.9222 11.7906 11.858C11.8549 11.7937 11.8549 11.6973 11.7906 11.633L7.96212 7.79282L7.73692 8.01777L11.5654 11.858Z" fill="white"/>
</svg>
