<svg width="16" height="18" viewBox="0 0 16 18" fill="none" xmlns="http://www.w3.org/2000/svg">
<path d="M12.1671 4.97612C12.1671 7.16506 10.3938 10.2822 8.19097 10.2822C5.98817 10.2822 4.21484 7.16506 4.21484 4.97612C4.21484 3.92158 4.63375 2.91025 5.37942 2.16458C6.12509 1.41892 7.13643 1 8.19097 1C9.2455 1 10.2568 1.41892 11.0025 2.16458C11.7482 2.91025 12.1671 3.92158 12.1671 4.97612Z" stroke="white" stroke-miterlimit="10"/>
<path d="M5.6275 8.82745C4.34572 8.99876 3.16984 9.62987 2.31864 10.6034C1.46745 11.5769 0.998911 12.8266 1.00023 14.1197V14.5769C0.994505 14.918 1.09562 15.2523 1.28939 15.533C1.48317 15.8137 1.75992 16.0268 2.08085 16.1424C6.03386 17.5412 10.3471 17.5412 14.3002 16.1424C14.6225 16.0274 14.9011 15.8148 15.0972 15.5343C15.2933 15.2538 15.3973 14.9192 15.3946 14.5769V14.1197C15.3917 12.8211 14.9163 11.5679 14.0572 10.5941C13.198 9.62026 12.0139 8.9923 10.7258 8.82745" stroke="white" stroke-miterlimit="10"/>
</svg>
