<svg width="42" height="40" viewBox="0 0 42 40" fill="none" xmlns="http://www.w3.org/2000/svg">
<path d="M10.5 39.25V20C3.437 20 0 24.7512 0 29.625C0 34.5372 3.49125 39.25 10.5 39.25ZM42 29.625C42 24.7512 38.563 20 31.5 20V39.25C38.5088 39.25 42 34.5372 42 29.625ZM21 5.9615C14.2118 5.9475 8.9932 10.0723 7.44975 16.8028C6.1355 17.0565 4.8615 17.4765 3.668 18.0557C4.76875 8.429 11.2262 0.75 21 0.75C30.7808 0.75 37.2575 8.4307 38.353 18.068C37.156 17.4835 35.8767 17.0618 34.5572 16.8063C33.0155 10.0688 27.79 5.9475 21 5.9615Z" fill="black"/>
</svg>
