<svg width="16" height="14" viewBox="0 0 16 14" fill="none" xmlns="http://www.w3.org/2000/svg">
<path d="M14.697 10.9657L12.3752 8.81952C11.9127 8.39381 11.1469 8.40674 10.6683 8.84922L9.49863 9.9301C9.42473 9.89245 9.34824 9.85313 9.26782 9.81142C8.52915 9.43313 7.51817 8.91465 6.45431 7.93065C5.38731 6.94458 4.82582 6.00873 4.41528 5.32558C4.37196 5.2532 4.33045 5.18342 4.28946 5.11715L5.07451 4.39264L5.46047 4.03547C5.93977 3.59236 5.95299 2.88473 5.49162 2.45779L3.16985 0.311394C2.70848 -0.114954 1.9423 -0.10202 1.463 0.341095L0.808649 0.94936L0.82653 0.965767C0.607117 1.22453 0.423768 1.52297 0.287326 1.84481C0.161552 2.15116 0.0832453 2.4435 0.0474394 2.73643C-0.259135 5.0855 0.902288 7.23237 4.05424 10.1456C8.4112 14.1723 11.9223 13.8681 12.0738 13.8533C12.4037 13.8168 12.7199 13.744 13.0412 13.6286C13.3864 13.504 13.709 13.3348 13.9888 13.1324L14.0031 13.1442L14.666 12.5442C15.1443 12.1012 15.1581 11.3933 14.697 10.9657Z" fill="white"/>
</svg>
